HIERARCHY
ROOT Hips
{
	OFFSET 0.00000 0.00000 0.00000
	CHANNELS 6 Xposition Yposition Zposition Zrotation Yrotation Xrotation 
	JOINT LHipJoint
	{
		OFFSET 0 0 0
		CHANNELS 3 Zrotation Yrotation Xrotation
		JOINT LeftUpLeg
		{
			OFFSET 1.62067 -1.77917 0.70989
			CHANNELS 3 Zrotation Yrotation Xrotation
			JOINT LeftLeg
			{
				OFFSET 2.34532 -6.44371 0.00000
				CHANNELS 3 Zrotation Yrotation Xrotation
				JOINT LeftFoot
				{
					OFFSET 2.74224 -7.53425 0.00000
					CHANNELS 3 Zrotation Yrotation Xrotation
					JOINT LeftToeBase
					{
						OFFSET 0.17032 -0.46794 2.08086
						CHANNELS 3 Zrotation Yrotation Xrotation
						End Site
						{
							OFFSET 0.00000 -0.00000 1.07476
						}
					}
				}
			}
		}
	}
	JOINT RHipJoint
	{
		OFFSET 0 0 0
		CHANNELS 3 Zrotation Yrotation Xrotation
		JOINT RightUpLeg
		{
			OFFSET -1.55811 -1.77917 0.70989
			CHANNELS 3 Zrotation Yrotation Xrotation
			JOINT RightLeg
			{
				OFFSET -2.33243 -6.40830 0.00000
				CHANNELS 3 Zrotation Yrotation Xrotation
				JOINT RightFoot
				{
					OFFSET -2.78798 -7.65993 0.00000
					CHANNELS 3 Zrotation Yrotation Xrotation
					JOINT RightToeBase
					{
						OFFSET -0.22707 -0.62388 2.04059
						CHANNELS 3 Zrotation Yrotation Xrotation
						End Site
						{
							OFFSET -0.00000 -0.00000 1.07030
						}
					}
				}
			}
		}
	}
	JOINT LowerBack
	{
		OFFSET 0 0 0
		CHANNELS 3 Zrotation Yrotation Xrotation
		JOINT Spine
		{
			OFFSET 0.02203 1.91565 0.07161
			CHANNELS 3 Zrotation Yrotation Xrotation
			JOINT Spine1
			{
				OFFSET 0.01740 1.90525 0.11636
				CHANNELS 3 Zrotation Yrotation Xrotation
				JOINT Neck
				{
					OFFSET 0 0 0
					CHANNELS 3 Zrotation Yrotation Xrotation
					JOINT Neck1
					{
						OFFSET -0.10841 1.83566 0.05067
						CHANNELS 3 Zrotation Yrotation Xrotation
						JOINT Head
						{
							OFFSET 0.06601 1.74760 -0.50505
							CHANNELS 3 Zrotation Yrotation Xrotation
							End Site
							{
								OFFSET 0.03102 1.85215 -0.17697
							}
						}
					}
				}
				JOINT LeftShoulder
				{
					OFFSET 0 0 0
					CHANNELS 3 Zrotation Yrotation Xrotation
					JOINT LeftArm
					{
						OFFSET 2.87059 1.35470 0.16111
						CHANNELS 3 Zrotation Yrotation Xrotation
						JOINT LeftForeArm
						{
							OFFSET 5.43592 -0.00000 0.00000
							CHANNELS 3 Zrotation Yrotation Xrotation
							JOINT LeftHand
							{
								OFFSET 3.25460 -0.00000 0.00000
								CHANNELS 3 Zrotation Yrotation Xrotation
								JOINT LeftFingerBase
								{
									OFFSET 0 0 0
									CHANNELS 3 Zrotation Yrotation Xrotation
									JOINT LeftHandIndex1
									{
										OFFSET 0.49824 -0.00000 0.00000
										CHANNELS 3 Zrotation Yrotation Xrotation
										End Site
										{
											OFFSET 0.40170 -0.00000 0.00000
										}
									}
								}
								JOINT LThumb
								{
									OFFSET 0 0 0
									CHANNELS 3 Zrotation Yrotation Xrotation
									End Site
									{
										OFFSET 0.40783 -0.00000 0.40783
									}
								}
							}
						}
					}
				}
				JOINT RightShoulder
				{
					OFFSET 0 0 0
					CHANNELS 3 Zrotation Yrotation Xrotation
					JOINT RightArm
					{
						OFFSET -2.86643 1.23488 0.45957
						CHANNELS 3 Zrotation Yrotation Xrotation
						JOINT RightForeArm
						{
							OFFSET -5.33830 -0.00000 0.00000
							CHANNELS 3 Zrotation Yrotation Xrotation
							JOINT RightHand
							{
								OFFSET -3.23148 -0.00000 0.00000
								CHANNELS 3 Zrotation Yrotation Xrotation
								JOINT RightFingerBase
								{
									OFFSET 0 0 0
									CHANNELS 3 Zrotation Yrotation Xrotation
									JOINT RightHandIndex1
									{
										OFFSET -0.46364 -0.00000 0.00000
										CHANNELS 3 Zrotation Yrotation Xrotation
										End Site
										{
											OFFSET -0.37380 -0.00000 0.00000
										}
									}
								}
								JOINT RThumb
								{
									OFFSET 0 0 0
									CHANNELS 3 Zrotation Yrotation Xrotation
									End Site
									{
										OFFSET -0.37951 -0.00000 0.37951
									}
								}
							}
						}
					}
				}
			}
		}
	}
}
MOTION
Frames: 5
Frame Time: .0083333
5.0480 17.0052 2.0536 -7.7806 -12.2749 7.7260 0.0000 0.0000 0.0000 -19.9436 -6.3640 -27.8382 4.7163 13.0570 39.5822 0.9191 4.0404 -20.0034 0.5560 4.7763 13.2715 0.0000 0.0000 0.0000 3.4135 19.7624 -102.5256 -22.5028 -19.8491 97.3355 -6.5201 -14.2023 47.0389 -0.0353 1.2121 -3.3327 3.4332 -0.3624 20.9033 1.5865 0.3022 5.4511 -0.3249 0.0950 -5.7388 -1.2512 -0.6894 -15.8764 -1.4718 -0.2325 39.4479 -0.5040 -0.5654 17.0304 0.0000 -0.0000 0.0000 -35.0757 24.3780 -14.5134 14.9573 -24.0866 -3.2085 -0.0000 0.0000 -16.3010 26.1357 -30.9012 -14.1434 -7.1250 0.0000 -0.0000 -2.9802 -3.6702 3.1690 0.0000 -0.0000 0.0000 40.4617 -22.6372 -11.1905 -19.2207 29.6920 -5.1397 0.0000 0.0000 0.3419 -20.7424 -43.0428 14.4931 7.1250 -0.0000 -0.0000 28.4010 -73.2720 -19.4329
5.0478 17.0000 2.0497 -7.7893 -12.3523 7.8091 0.0000 0.0000 0.0000 -19.9059 -6.5293 -27.9497 4.7303 13.0735 39.6442 0.9076 4.2172 -19.9964 0.5865 4.9033 13.6329 0.0000 0.0000 0.0000 3.3223 19.8788 -102.6627 -22.4981 -19.8497 97.3215 -6.4945 -14.1822 46.9394 -0.0587 1.5637 -4.3014 3.4463 -0.3447 20.9732 1.5994 0.3345 5.3877 -0.3264 0.1087 -5.8429 -1.2280 -0.6779 -16.0451 -1.5070 -0.2050 39.5914 -0.5224 -0.5569 17.1530 -0.0000 0.0000 0.0000 -35.1555 24.5297 -14.2373 15.0330 -24.1921 -3.2395 -0.0000 0.0000 -16.3293 26.3720 -31.7564 -14.6248 -7.1250 0.0000 -0.0000 -2.9953 -4.6176 3.2310 -0.0000 0.0000 0.0000 40.3938 -22.5950 -10.9410 -19.3090 29.8008 -5.1835 0.0000 0.0000 0.2592 -20.3330 -43.3263 14.2660 7.1250 -0.0000 -0.0000 29.5087 -73.3535 -20.2749
5.0499 16.9982 2.0508 -7.8076 -12.5582 7.8344 0.0000 0.0000 0.0000 -19.9084 -6.5339 -27.9793 4.7425 13.0878 39.6982 0.8929 4.4726 -20.0095 0.5915 4.9238 13.6915 0.0000 0.0000 0.0000 3.2521 20.0691 -102.7047 -22.5047 -19.8489 97.3411 -6.4625 -14.3647 46.8129 -0.0601 1.5822 -4.3524 3.4831 -0.2672 21.0541 1.6248 0.4506 5.3212 -0.3493 0.1625 -5.9535 -1.3081 -0.6849 -16.0105 -1.5280 -0.1783 39.5847 -0.5120 -0.5606 17.1412 0.0000 -0.0000 0.0000 -35.0778 24.5140 -13.8095 14.9591 -24.0891 -3.2092 -0.0000 0.0000 -16.3320 27.3961 -32.0321 -15.3701 -7.1250 0.0000 -0.0000 -2.4714 -5.1626 2.6862 0.0000 -0.0000 0.0000 40.2331 -22.7067 -10.5223 -19.3958 29.9075 -5.2267 0.0000 0.0000 0.0641 -20.2219 -43.5445 14.2394 7.1250 -0.0000 -0.0000 30.1225 -73.4875 -20.8003
5.0534 16.9968 2.0536 -7.7023 -12.7928 7.8320 0.0000 0.0000 0.0000 -20.0705 -6.4685 -28.0030 4.7514 13.0983 39.7375 0.8798 4.7117 -20.0300 0.5985 4.9524 13.7730 0.0000 0.0000 0.0000 3.0528 20.2108 -102.7876 -22.5289 -19.8460 97.4124 -6.4420 -14.6825 46.7311 -0.0466 1.3930 -3.8308 3.3976 -0.1846 21.0339 1.6157 0.5376 5.3212 -0.3326 0.2053 -5.9414 -1.4535 -0.6843 -15.9939 -1.4470 -0.1589 39.5307 -0.4446 -0.5624 17.1082 -0.0000 0.0000 0.0000 -34.6344 24.2161 -13.3445 14.7385 -23.7805 -3.1197 -0.0000 0.0000 -16.9409 27.8618 -30.3747 -14.9652 -7.1250 0.0000 -0.0000 -1.9068 -3.5462 2.0221 -0.0000 0.0000 0.0000 40.0827 -22.5975 -10.3960 -19.3895 29.8998 -5.2236 0.0000 0.0000 0.0529 -20.4645 -43.6187 14.4367 7.1250 -0.0000 -0.0000 29.9966 -73.6347 -20.8012
5.0564 16.9932 2.0505 -7.6034 -12.9085 7.8374 0.0000 0.0000 0.0000 -20.2050 -6.4995 -28.0352 4.7579 13.1058 39.7659 0.8629 4.9337 -20.0073 0.5924 4.9275 13.7019 0.0000 0.0000 0.0000 2.8708 20.2738 -102.8825 -22.5400 -19.8446 97.4449 -6.4333 -15.2540 46.6982 -0.0257 1.0345 -2.8439 3.3247 -0.1617 21.0776 1.6040 0.5535 5.3051 -0.3079 0.2130 -5.9820 -1.4037 -0.6625 -16.0470 -1.5908 -0.0832 39.5982 -0.5058 -0.5452 17.1596 0.0000 -0.0000 0.0000 -35.0793 24.3792 -13.9533 14.9150 -24.0276 -3.1913 -0.0000 0.0000 -16.8609 27.0958 -28.7766 -13.8364 -7.1250 0.0000 -0.0000 -2.0731 -1.6736 2.1342 0.0000 -0.0000 0.0000 40.0087 -22.4036 -10.4396 -19.4140 29.9299 -5.2358 0.0000 0.0000 0.1260 -20.5639 -43.2346 14.4119 7.1250 -0.0000 -0.0000 29.0297 -73.3631 -19.9371
